<?xml version="1.0" encoding="UTF-8" standalone="no"?>
<!DOCTYPE svg PUBLIC "-//W3C//DTD SVG 1.1//EN" "http://www.w3.org/Graphics/SVG/1.1/DTD/svg11.dtd">
<svg width="100%" height="100%" viewBox="0 0 98 75" version="1.1" xmlns="http://www.w3.org/2000/svg" xmlns:xlink="http://www.w3.org/1999/xlink" xml:space="preserve" xmlns:serif="http://www.serif.com/" style="fill-rule:evenodd;clip-rule:evenodd;stroke-linejoin:round;stroke-miterlimit:2;">
    <g transform="matrix(1,0,0,1,-462.593,-25.5008)">
        <g transform="matrix(0.0652619,0,0,0.0656359,456.85,-1.43484)">
            <path d="M1561.48,416.6L1544.3,416.6L1544.3,416.3L1377.78,416.3L1377.78,416.6L1364.74,416.6C1352,416.6 1344,423.71 1338.67,439.12L1323.85,484.75L1157.63,994.97L1154.96,994.97L1098.37,785.49L1074.37,703.71C1071.41,691.56 1061.04,681.19 1048.59,681.19L1010.37,681.19L1021.63,680.89L870.22,680.89L870.22,681.19L838.22,681.19C825.48,681.19 810.96,691.56 816.3,706.38L824.3,728.6L824,728.6L1001.48,1212.15L1295.41,1212.15L1535.7,577.49L1536.3,577.49L1583.41,441.78C1588.74,426.97 1573.93,416.6 1561.48,416.6" style="fill:rgb(246,178,33);fill-rule:nonzero;"/>
        </g>
        <g transform="matrix(0.0652619,0,0,0.0656359,456.85,66.0684)">
            <path d="M1285.63,299.85C1285.63,282.96 1293.93,274.07 1310.22,273.78C1326.52,274.07 1334.52,282.96 1334.52,299.85C1334.52,317.04 1326.52,325.63 1310.22,326.22C1293.93,325.63 1285.63,317.04 1285.63,299.85M1298.96,299.85C1298.96,304.3 1299.85,308.15 1301.63,311.11C1303.41,314.37 1306.37,316.15 1310.22,316.15C1314.07,316.15 1317.04,314.37 1318.81,311.11C1320.3,308.15 1321.18,304.3 1321.18,299.85C1321.18,295.41 1320.3,291.56 1318.81,288.59C1317.04,285.33 1314.07,283.85 1310.22,283.85C1306.37,283.85 1303.41,285.33 1301.63,288.59C1299.85,291.56 1298.96,295.41 1298.96,299.85" style="fill:rgb(0,45,115);fill-rule:nonzero;"/>
        </g>
        <g transform="matrix(0.0652619,0,0,0.0656359,456.85,65.8932)">
            <path d="M1381.93,328L1370.37,328L1370.37,321.19C1369.48,323.26 1368,325.04 1365.63,326.52C1363.26,328 1360.89,328.89 1357.93,328.89C1352.3,328.6 1348.15,326.52 1345.48,322.67C1342.52,318.82 1341.04,314.08 1341.04,308.45C1341.04,303.41 1342.52,299.26 1345.18,295.41C1347.85,291.56 1351.7,289.48 1356.74,289.48C1359.41,289.48 1361.78,289.78 1363.85,290.37C1365.93,291.56 1367.7,293.04 1369.18,295.11L1369.48,295.11L1369.48,273.78L1381.93,273.78L1381.93,328ZM1354.07,308.74C1354.07,311.71 1354.96,314.08 1356.15,315.86C1357.63,317.93 1359.41,318.82 1361.78,318.82C1363.85,318.82 1365.93,317.93 1367.11,315.86C1368.59,314.37 1369.48,312 1369.48,309.34C1369.48,306.37 1368.89,304 1367.41,302.23C1365.93,300.15 1364.15,299.26 1361.78,299.26C1359.41,299.26 1357.33,300.15 1356.15,302.23C1354.67,304 1354.07,306.08 1354.07,308.74" style="fill:rgb(0,45,115);fill-rule:nonzero;"/>
        </g>
        <g transform="matrix(0.0652619,0,0,0.0656359,456.85,66.0684)">
            <path d="M1408,274.67L1424,274.67L1442.96,325.33L1428.74,325.33L1424.89,314.37L1406.52,314.37L1402.67,325.33L1389.63,325.33L1408,274.67ZM1416.89,285.04L1410.37,304.89L1422.81,304.89L1416.89,285.04Z" style="fill:rgb(0,45,115);fill-rule:nonzero;"/>
        </g>
        <g transform="matrix(0.0652619,0,0,0.0656359,456.85,66.068)">
            <rect x="1476.15" y="274.67" width="13.037" height="50.667" style="fill:rgb(0,45,115);"/>
        </g>
        <g transform="matrix(0.0652619,0,0,0.0656359,456.85,66.0684)">
            <path d="M1541.93,324.15C1540.15,324.44 1538.07,325.04 1535.7,325.33C1533.33,325.93 1530.67,326.22 1527.41,326.22C1524.15,326.22 1520.89,325.63 1517.63,324.74C1514.37,323.85 1511.11,322.37 1508.44,320.3C1502.52,316.44 1499.56,309.63 1499.26,300.15C1499.26,291.26 1501.93,284.74 1507.26,280.3C1512.3,276.15 1519.11,273.78 1527.41,273.78C1532.15,274.07 1537.18,274.96 1541.63,276.44L1540.74,287.41C1536.59,285.04 1532.44,283.85 1528,283.85C1523.26,283.85 1519.7,285.33 1517.04,288.59C1514.07,291.56 1512.59,295.41 1512.59,300.15C1512.59,305.19 1514.37,309.04 1517.33,312C1520.3,314.67 1524.15,316.15 1528.89,316.15C1533.33,316.15 1537.48,315.26 1541.33,313.48L1541.93,324.15Z" style="fill:rgb(0,45,115);fill-rule:nonzero;"/>
        </g>
        <g transform="matrix(0.0652619,0,0,0.0656359,456.85,66.0684)">
            <path d="M1560.89,284.74L1548.74,284.74L1548.74,274.67L1585.78,274.67L1585.78,284.74L1573.63,284.74L1573.63,325.33L1560.89,325.33L1560.89,284.74Z" style="fill:rgb(0,45,115);fill-rule:nonzero;"/>
        </g>
        <g transform="matrix(0.0652619,0,0,0.0656359,456.85,74.0419)">
            <path d="M1294.22,218.96L1298.96,218.96L1298.96,235.56C1299.85,234.37 1300.74,233.19 1302.22,232.3C1303.7,231.71 1305.48,231.11 1307.85,231.11C1311.7,231.41 1314.37,232.59 1316.44,235.26C1318.22,237.93 1319.11,241.19 1319.11,245.04C1319.11,248.89 1318.22,252.15 1316.44,255.11C1314.67,258.08 1311.7,259.56 1307.85,259.56C1305.48,259.56 1303.7,259.26 1302.22,258.08C1300.74,257.19 1299.56,256.3 1298.96,255.11L1298.67,255.11L1298.67,258.96L1294.22,258.96L1294.22,218.96ZM1314.07,245.33C1314.07,242.67 1313.48,240.59 1312.3,238.52C1311.11,236.45 1309.33,235.26 1306.67,235.26C1304,235.26 1302.22,236.45 1301.04,238.52C1299.56,240.59 1298.96,242.96 1298.96,245.63C1298.96,248 1299.56,250.08 1300.74,252.15C1301.93,254.52 1304,255.71 1306.67,255.71C1308.15,255.71 1309.04,255.41 1310.22,254.52C1311.11,253.93 1311.7,253.04 1312.3,252.15C1313.48,249.78 1314.07,247.71 1314.07,245.33" style="fill:rgb(0,45,115);fill-rule:nonzero;"/>
        </g>
        <g transform="matrix(0.0652619,0,0,0.0656359,456.85,74.8394)">
            <path d="M1346.67,245.63C1345.78,246.22 1344.59,246.52 1343.41,246.81C1342.22,247.41 1340.44,247.41 1338.37,247.41C1333.63,247.41 1330.07,246.22 1328,243.56C1325.63,240.89 1324.74,237.33 1324.74,232.89C1324.74,228.74 1325.63,225.48 1328,222.81C1330.07,220.44 1333.33,219.26 1336.89,218.96C1341.33,219.26 1344.3,220.74 1346.07,223.41C1346.96,224.89 1347.56,226.37 1348.15,228.15C1348.44,230.22 1348.44,232.3 1348.44,234.37L1329.78,234.37C1329.78,237.04 1330.67,239.41 1332.44,240.89C1334.22,242.67 1336,243.56 1338.37,243.56C1340.15,243.56 1341.63,243.26 1343.41,242.37C1344.89,241.78 1345.78,241.18 1346.67,240.89L1346.67,245.63ZM1343.41,230.81C1343.41,228.44 1342.81,226.67 1341.63,225.48C1340.74,224 1338.96,223.11 1336.89,223.11C1334.52,223.11 1332.74,224 1331.56,225.48C1330.67,227.26 1330.07,228.74 1329.78,230.81L1343.41,230.81Z" style="fill:rgb(0,45,115);fill-rule:nonzero;"/>
        </g>
        <g transform="matrix(0.0652619,0,0,0.0656359,456.85,74.0806)">
            <path d="M1360.3,225.19L1354.96,225.19L1354.96,219.56L1360.3,219.56L1360.3,225.19ZM1355.26,231.41L1360,231.41L1360,258.37L1355.26,258.37L1355.26,231.41Z" style="fill:rgb(0,45,115);fill-rule:nonzero;"/>
        </g>
        <g transform="matrix(0.0652619,0,0,0.0656359,456.85,74.0419)">
            <path d="M1386.96,255.11C1386.37,256.3 1385.18,257.19 1383.7,258.08C1382.22,259.26 1380.44,259.56 1378.07,259.56C1373.93,259.56 1371.26,258.08 1369.48,255.11C1367.41,252.15 1366.52,248.89 1366.52,245.04C1366.52,241.19 1367.7,237.93 1369.48,235.26C1371.26,232.59 1374.22,231.41 1378.07,231.11C1380.15,231.11 1382.22,231.71 1383.7,232.3C1384.89,233.19 1386.07,234.37 1386.67,235.56L1386.67,218.96L1391.7,218.96L1391.7,258.96L1386.96,258.96L1386.96,255.11ZM1371.85,245.33C1371.85,247.71 1372.15,249.78 1373.33,252.15C1373.93,253.04 1374.81,253.93 1375.7,254.52C1376.59,255.41 1377.78,255.71 1378.96,255.71C1381.63,255.71 1383.7,254.52 1384.89,252.15C1386.07,250.08 1386.67,248 1386.67,245.63C1386.67,242.96 1386.07,240.59 1384.89,238.52C1383.7,236.45 1381.63,235.26 1378.96,235.26C1376.3,235.26 1374.52,236.45 1373.33,238.52C1372.15,240.59 1371.85,242.67 1371.85,245.33" style="fill:rgb(0,45,115);fill-rule:nonzero;"/>
        </g>
        <g transform="matrix(0.0652619,0,0,0.0656359,456.85,74.8394)">
            <path d="M1420.15,245.63C1419.26,246.22 1418.07,246.52 1416.89,246.81C1415.7,247.41 1413.93,247.41 1411.85,247.41C1407.11,247.41 1403.56,246.22 1401.48,243.56C1399.11,240.89 1398.22,237.33 1398.22,232.89C1398.22,228.74 1399.41,225.48 1401.48,222.81C1403.85,220.44 1406.81,219.26 1410.37,218.96C1414.81,219.26 1417.78,220.74 1419.56,223.41C1420.44,224.89 1421.04,226.37 1421.63,228.15C1421.93,230.22 1421.93,232.3 1421.93,234.37L1403.26,234.37C1403.26,237.04 1404.15,239.41 1405.93,240.89C1407.7,242.67 1409.48,243.56 1411.85,243.56C1413.63,243.56 1415.11,243.26 1416.89,242.37C1418.37,241.78 1419.26,241.18 1420.15,240.89L1420.15,245.63ZM1416.89,230.81C1416.89,228.44 1416.3,226.67 1415.11,225.48C1414.22,224 1412.44,223.11 1410.37,223.11C1408,223.11 1406.22,224 1405.04,225.48C1404.15,227.26 1403.56,228.74 1403.26,230.81L1416.89,230.81Z" style="fill:rgb(0,45,115);fill-rule:nonzero;"/>
        </g>
        <g transform="matrix(0.0652619,0,0,0.0656359,456.85,74.8)">
            <path d="M1428.44,220.45L1432.89,220.45L1432.89,224.6L1433.18,224.6C1433.78,223.12 1434.67,221.93 1436.15,221.04C1437.33,220.16 1438.52,219.56 1440,219.56C1441.18,219.56 1442.37,219.86 1443.26,220.16L1443.26,224.6C1442.37,224.3 1441.48,224.01 1440.59,224.01C1438.22,224.01 1436.74,225.19 1435.26,226.97C1434.07,229.04 1433.18,231.71 1433.18,235.27L1433.18,247.41L1428.44,247.41L1428.44,220.45Z" style="fill:rgb(0,45,115);fill-rule:nonzero;"/>
        </g>
        <g transform="matrix(0.0652619,0,0,0.0656359,456.85,74.1974)">
            <path d="M1462.52,219.56L1472.3,219.56C1476.15,219.56 1479.11,220.15 1481.48,221.63C1483.56,223.11 1484.74,225.48 1484.74,228.74C1484.74,233.78 1482.37,236.74 1477.33,237.63C1480,237.93 1482.07,238.82 1483.56,240.3C1485.04,242.08 1485.93,244.15 1485.93,246.82C1485.93,248.59 1485.63,250.37 1484.74,251.56C1484.15,252.74 1482.96,253.93 1481.78,254.52C1479.11,256 1475.85,256.59 1472.3,256.59L1462.52,256.59L1462.52,219.56ZM1467.85,235.26L1474.07,235.26C1475.26,234.96 1476.15,234.67 1477.04,234.37C1477.93,234.08 1478.52,233.48 1479.11,232.59C1479.41,231.71 1479.7,230.82 1479.7,229.34C1479.7,228.15 1479.41,227.26 1479.11,226.67C1478.81,225.78 1478.22,225.19 1477.63,224.89C1476.15,224.3 1474.67,223.71 1473.18,223.71L1467.85,223.71L1467.85,235.26ZM1467.85,252.15L1471.7,252.15C1474.07,252.45 1476.15,251.85 1477.63,250.96C1478.52,250.67 1479.11,250.08 1479.7,249.19C1480.3,248.59 1480.3,247.41 1480.3,246.22C1480.3,244.74 1480,243.56 1479.7,242.67C1479.11,241.78 1478.22,241.19 1477.33,240.89C1476.44,240.3 1475.56,240 1474.37,240C1473.18,239.71 1472.3,239.71 1471.11,239.71L1467.85,239.71L1467.85,252.15Z" style="fill:rgb(0,45,115);fill-rule:nonzero;"/>
        </g>
        <g transform="matrix(0.0652619,0,0,0.0656359,456.85,74.8394)">
            <path d="M1494.52,221.63C1496.89,219.85 1499.85,219.26 1503.41,218.96C1510.52,219.26 1514.07,222.81 1513.78,230.22L1513.78,241.48C1513.78,244.44 1513.78,246.22 1514.07,246.81L1509.63,246.81L1509.63,243.26L1509.33,243.26C1508.74,244.15 1507.85,245.04 1506.67,245.93C1505.18,247.11 1503.41,247.41 1501.33,247.41C1498.37,247.41 1496,246.81 1494.22,245.63C1492.44,244.15 1491.56,242.07 1491.56,239.11C1491.56,237.33 1492.15,235.85 1492.74,234.67C1493.63,233.78 1494.52,232.59 1496,232C1498.37,230.81 1501.04,230.22 1503.7,230.22L1509.04,230.22C1509.04,227.85 1508.44,226.07 1507.56,224.89C1506.67,223.7 1504.89,223.11 1502.52,223.11C1499.56,223.11 1496.89,224 1494.81,225.78L1494.52,221.63ZM1509.04,234.07C1507.85,234.07 1506.96,233.78 1505.78,233.78C1505.18,233.78 1504.3,233.78 1503.41,234.07C1502.52,234.07 1501.33,234.37 1500.44,234.67C1499.26,234.96 1498.37,235.56 1497.78,236.15C1497.18,236.74 1496.89,237.93 1496.89,239.11C1496.89,240.59 1497.48,241.48 1498.37,242.37C1499.56,242.96 1500.44,243.56 1501.63,243.56C1504,243.56 1506.07,242.67 1507.26,241.48C1508.44,240 1509.04,238.52 1509.04,236.44L1509.04,234.07Z" style="fill:rgb(0,45,115);fill-rule:nonzero;"/>
        </g>
        <g transform="matrix(0.0652619,0,0,0.0656359,456.85,74.8394)">
            <path d="M1520,241.48C1521.18,242.07 1522.07,242.67 1523.26,242.96C1524.44,243.26 1525.33,243.56 1525.93,243.56C1527.41,243.56 1528.3,243.26 1529.48,242.67C1530.37,242.07 1530.96,240.89 1530.96,239.7C1530.96,239.11 1530.96,238.52 1530.67,237.93C1530.37,237.33 1529.78,237.04 1529.18,236.74C1528.3,235.85 1526.81,235.26 1525.33,234.37C1524.74,234.07 1523.85,233.78 1523.26,233.18C1522.67,232.89 1522.07,232.3 1521.48,231.7C1520.3,230.81 1519.7,229.33 1519.7,227.56C1519.7,224.59 1520.59,222.52 1522.37,221.04C1524.15,219.85 1526.22,218.96 1528.89,218.96C1530.96,219.26 1533.04,219.56 1534.81,220.15L1534.52,224.59C1533.93,224 1533.04,223.7 1532.15,223.41C1530.96,223.11 1530.07,223.11 1529.48,223.11C1528.3,223.11 1527.11,223.41 1526.22,224C1525.33,224.59 1524.74,225.18 1524.74,226.37C1524.74,227.26 1525.04,227.56 1525.33,228.15C1525.63,228.74 1525.93,229.04 1526.52,229.33C1527.11,229.93 1527.7,230.22 1528.59,230.52C1529.18,230.81 1529.78,231.11 1530.37,231.7C1531.26,232 1531.85,232.3 1532.74,232.59C1533.33,233.18 1533.93,233.48 1534.52,234.07C1535.11,234.67 1535.41,235.26 1535.7,236.15C1536,237.04 1536.3,237.93 1536.3,239.11C1536.3,242.07 1535.11,244.15 1533.33,245.33C1531.56,246.81 1529.48,247.41 1527.11,247.41C1525.63,247.41 1524.44,247.41 1523.26,247.11C1522.07,247.11 1520.89,246.52 1519.7,245.93L1520,241.48Z" style="fill:rgb(0,45,115);fill-rule:nonzero;"/>
        </g>
        <g transform="matrix(0.0652619,0,0,0.0656359,456.85,74.8394)">
            <path d="M1562.07,245.63C1561.18,246.22 1560.3,246.52 1559.11,246.81C1557.63,247.41 1556.15,247.41 1553.78,247.41C1549.33,247.41 1545.78,246.22 1543.7,243.56C1541.33,240.89 1540.15,237.33 1540.15,232.89C1540.15,228.74 1541.33,225.48 1543.7,222.81C1545.78,220.44 1548.74,219.26 1552.59,218.96C1557.04,219.26 1560,220.74 1561.78,223.41C1562.67,224.89 1563.26,226.37 1563.56,228.15C1564.15,230.22 1564.15,232.3 1564.15,234.37L1545.48,234.37C1545.48,237.04 1546.37,239.41 1548.15,240.89C1549.63,242.67 1551.7,243.56 1554.07,243.56C1555.85,243.56 1557.33,243.26 1558.81,242.37C1560.59,241.78 1561.48,241.18 1562.07,240.89L1562.07,245.63ZM1559.11,230.81C1559.11,228.44 1558.52,226.67 1557.33,225.48C1556.15,224 1554.67,223.11 1552.59,223.11C1550.22,223.11 1548.44,224 1547.26,225.48C1546.07,227.26 1545.48,228.74 1545.48,230.81L1559.11,230.81Z" style="fill:rgb(0,45,115);fill-rule:nonzero;"/>
        </g>
        <g transform="matrix(0.0652619,0,0,0.0656359,456.85,74.0025)">
            <rect x="1570.96" y="219.56" width="4.741" height="40" style="fill:rgb(0,45,115);"/>
        </g>
        <g transform="matrix(0.0652619,0,0,0.0656359,456.85,29.3517)">
            <path d="M345.78,917.92C345.78,930.36 335.7,940.44 322.96,940.44L111.7,940.44C98.963,940.44 88.889,930.36 88.889,917.92L88.889,241.77C88.889,229.03 98.963,218.96 111.7,218.96L322.96,218.96C335.7,218.96 345.78,229.03 345.78,241.77L345.78,917.92Z" style="fill:rgb(0,45,115);fill-rule:nonzero;"/>
        </g>
        <g transform="matrix(0.0652619,0,0,0.0656359,456.85,29.332)">
            <path d="M1088.89,941.63C1076.44,941.63 1071.11,931.55 1066.67,919.11L1049.78,874.37L1001.78,744.29L719.11,744.29L718.81,744.89L718.81,240.89C718.81,228.14 708.74,218.07 696.3,218.07L484.74,218.07C472.3,218.07 461.93,228.14 461.93,240.89L461.93,918.81C461.93,931.55 472.3,941.63 484.74,941.63L1097.78,941.63L1088.89,941.63Z" style="fill:rgb(0,45,115);fill-rule:nonzero;"/>
        </g>
        <g transform="matrix(0.0652619,0,0,0.0656359,456.85,-40.5821)">
            <path d="M347.26,1195.25C347.26,1207.99 336.89,1218.07 324.44,1218.07L112.89,1218.07C100.44,1218.07 90.37,1207.99 90.37,1195.25L90.37,1029.32C90.37,1016.88 100.44,1006.81 112.89,1006.81L324.44,1006.81C336.89,1006.81 347.26,1016.88 347.26,1029.32L347.26,1195.25Z" style="fill:rgb(0,45,115);fill-rule:nonzero;"/>
        </g>
        <g transform="matrix(0.0652619,0,0,0.0656359,456.85,90.6503)">
            <rect x="88" y="85.333" width="14.222" height="54.815" style="fill:rgb(0,45,115);"/>
        </g>
        <g transform="matrix(0.0652619,0,0,0.0656359,456.85,90.6502)">
            <path d="M114.07,85.333L132.15,85.333L150.22,122.373L150.52,122.373L150.22,85.333L162.96,85.333L162.96,140.15L145.48,140.15L126.81,102.523L127.11,140.15L114.07,140.15L114.07,85.333Z" style="fill:rgb(0,45,115);fill-rule:nonzero;"/>
        </g>
        <g transform="matrix(0.0652619,0,0,0.0656359,456.85,90.6502)">
            <path d="M175.11,85.333L210.67,85.333L210.67,95.703L189.33,95.703L189.33,107.553L209.78,107.553L209.78,117.923L189.33,117.923L189.33,140.15L175.11,140.15L175.11,85.333Z" style="fill:rgb(0,45,115);fill-rule:nonzero;"/>
        </g>
        <g transform="matrix(0.0652619,0,0,0.0656359,456.85,90.6311)">
            <path d="M217.19,112.884C217.19,94.214 226.07,84.734 243.85,84.444C261.63,84.734 270.52,94.214 270.52,112.884C270.52,131.552 261.63,141.033 243.85,141.33C226.37,141.033 217.19,131.552 217.19,112.884M232,112.884C232,117.624 232.89,121.774 234.67,125.034C236.74,128.589 239.7,130.367 243.85,130.663C248.3,130.367 251.26,128.589 253.33,125.034C255.11,121.774 256,117.624 256,112.884C256,107.844 255.11,103.994 253.33,100.444C251.26,97.184 248.3,95.404 243.85,95.404C239.7,95.404 236.74,97.184 234.67,100.444C232.89,103.994 232,107.844 232,112.884" style="fill:rgb(0,45,115);fill-rule:nonzero;"/>
        </g>
        <g transform="matrix(0.0652619,0,0,0.0656359,456.85,90.6502)">
            <path d="M280,85.333L305.19,85.333C310.22,85.333 314.07,86.223 317.33,88.593C320.59,90.963 322.37,94.223 322.37,98.963C322.37,106.373 319.11,111.113 312.3,112.893L312.3,113.183C313.19,113.483 314.37,113.783 314.96,114.373C315.56,114.963 316.15,115.853 316.74,117.043C317.33,117.923 317.63,119.113 318.22,120.593C318.52,121.783 319.11,123.553 319.7,125.043L325.04,140.15L310.22,140.15L306.96,130.372C305.78,125.631 304.3,122.373 303.11,120.593C301.63,119.113 299.56,118.523 297.19,118.523L294.22,118.523L294.22,140.15L280,140.15L280,85.333ZM294.22,108.153L298.07,108.153C298.67,108.153 299.26,107.853 300.15,107.853L301.93,107.853C303.11,107.853 304.3,107.553 305.48,107.263C306.67,106.673 307.56,106.073 308.15,105.183C308.74,104.293 309.04,103.113 309.04,101.633C309.04,99.263 308.15,97.483 305.78,96.593C303.7,96.003 301.04,95.703 298.07,95.703L294.22,95.703L294.22,108.153Z" style="fill:rgb(0,45,115);fill-rule:nonzero;"/>
        </g>
        <g transform="matrix(0.0652619,0,0,0.0656359,456.85,90.6502)">
            <path d="M333.33,85.333L355.85,85.333L367.11,121.783L378.96,85.333L400.59,85.333L400.59,140.15L386.67,140.15L386.96,98.073L386.67,98.073L373.33,140.15L360,140.15L347.26,98.073L346.96,98.073L347.26,140.15L333.33,140.15L333.33,85.333Z" style="fill:rgb(0,45,115);fill-rule:nonzero;"/>
        </g>
        <g transform="matrix(0.0652619,0,0,0.0656359,456.85,90.6502)">
            <path d="M428.44,85.333L445.63,85.333L466.37,140.15L450.67,140.15L446.81,128.594L426.67,128.594L422.52,140.15L408,140.15L428.44,85.333ZM437.93,96.593L430.81,117.923L444.44,117.923L437.93,96.593Z" style="fill:rgb(0,45,115);fill-rule:nonzero;"/>
        </g>
        <g transform="matrix(0.0652619,0,0,0.0656359,456.85,90.6502)">
            <path d="M477.93,96.003L464.89,96.003L464.89,85.333L505.19,85.333L505.19,96.003L492.15,96.003L492.15,140.15L477.93,140.15L477.93,96.003Z" style="fill:rgb(0,45,115);fill-rule:nonzero;"/>
        </g>
        <g transform="matrix(0.0652619,0,0,0.0656359,456.85,90.6503)">
            <rect x="512.89" y="85.333" width="14.222" height="54.815" style="fill:rgb(0,45,115);"/>
        </g>
        <g transform="matrix(0.0652619,0,0,0.0656359,456.85,90.6502)">
            <path d="M538.96,85.333L553.19,85.333L553.19,107.553L569.19,85.333L586.37,85.333L566.81,110.813L587.85,140.15L569.78,140.15L553.19,115.263L553.19,140.15L538.96,140.15L538.96,85.333Z" style="fill:rgb(0,45,115);fill-rule:nonzero;"/>
        </g>
        <g transform="matrix(0.0652619,0,0,0.0656359,456.85,90.6502)">
            <path d="M620.74,85.333L634.96,85.333L634.96,129.187L656.89,129.187L656.89,140.15L620.74,140.15L620.74,85.333Z" style="fill:rgb(0,45,115);fill-rule:nonzero;"/>
        </g>
        <g transform="matrix(0.0652619,0,0,0.0656359,456.85,90.6502)">
            <path d="M664.3,85.333L701.63,85.333L701.63,95.703L678.52,95.703L678.52,106.963L700.44,106.963L700.44,117.333L678.52,117.333L678.52,129.779L702.52,129.779L702.52,140.15L664.3,140.15L664.3,85.333Z" style="fill:rgb(0,45,115);fill-rule:nonzero;"/>
        </g>
        <g transform="matrix(0.0652619,0,0,0.0656359,456.85,90.6502)">
            <path d="M713.19,85.333L727.41,85.333L727.41,106.073L744.3,106.073L744.3,85.333L758.22,85.333L758.22,140.15L744.3,140.15L744.3,116.443L727.41,116.443L727.41,140.15L713.19,140.15L713.19,85.333Z" style="fill:rgb(0,45,115);fill-rule:nonzero;"/>
        </g>
        <g transform="matrix(0.0652619,0,0,0.0656359,456.85,90.6502)">
            <path d="M769.78,85.333L794.96,85.333C800,85.333 804.15,86.223 807.11,88.593C810.37,90.963 812.15,94.223 812.15,98.963C812.15,106.373 808.89,111.113 802.07,112.893L802.07,113.183C803.26,113.483 804.15,113.783 804.74,114.373C805.63,114.963 805.93,115.853 806.52,117.043C807.11,117.923 807.41,119.113 808,120.593C808.3,121.783 808.89,123.553 809.48,125.043L814.81,140.15L800,140.15L796.74,130.372C795.56,125.631 794.07,122.373 792.89,120.593C791.41,119.113 789.33,118.523 786.96,118.523L784,118.523L784,140.15L769.78,140.15L769.78,85.333ZM784,108.153L787.85,108.153C788.44,108.153 789.33,107.853 789.93,107.853L791.7,107.853C792.89,107.853 794.37,107.553 795.26,107.263C796.44,106.673 797.33,106.073 797.93,105.183C798.52,104.293 799.11,103.113 799.11,101.633C798.81,99.263 797.93,97.483 795.56,96.593C793.48,96.003 790.81,95.703 787.85,95.703L784,95.703L784,108.153Z" style="fill:rgb(0,45,115);fill-rule:nonzero;"/>
        </g>
        <g transform="matrix(0.0652619,0,0,0.0656359,456.85,90.6502)">
            <path d="M822.81,85.333L848,85.333C853.04,85.333 857.19,86.223 860.44,88.593C863.7,90.963 865.48,94.523 865.48,98.963C865.48,105.783 862.22,110.223 855.7,112.003C863.11,113.483 866.96,117.633 866.96,124.153C866.96,127.409 866.37,130.076 865.19,132.15C863.7,134.224 862.22,136.002 860.15,136.89C858.07,138.076 855.7,138.964 853.33,139.557C850.96,139.853 848.3,140.15 845.93,140.15L822.81,140.15L822.81,85.333ZM837.04,106.963L841.19,106.963C843.85,106.963 846.22,106.673 848.3,105.783C850.37,104.893 851.26,103.413 851.26,101.043C851.26,98.673 850.37,97.183 848.3,96.293C847.41,96.003 846.52,95.703 845.33,95.703L837.04,95.703L837.04,106.963ZM837.04,129.779L841.48,129.779C842.96,129.779 844.44,129.483 845.63,129.483C846.52,129.187 847.11,129.187 847.7,128.89C848.3,128.89 848.89,128.594 849.19,128.594C850.37,128.002 851.26,127.409 851.85,126.52C852.44,125.927 852.74,124.743 852.74,123.263C852.74,121.783 852.44,120.593 851.85,119.703C851.26,118.813 850.37,118.223 849.19,117.633C848.3,117.333 846.81,117.043 845.63,117.043C844.44,116.743 842.96,116.743 841.78,116.743L837.04,116.743L837.04,129.779Z" style="fill:rgb(0,45,115);fill-rule:nonzero;"/>
        </g>
        <g transform="matrix(0.0652619,0,0,0.0656359,456.85,90.6502)">
            <path d="M876.74,85.333L914.37,85.333L914.37,95.703L890.96,95.703L890.96,106.963L912.89,106.963L912.89,117.333L890.96,117.333L890.96,129.779L915.26,129.779L915.26,140.15L876.74,140.15L876.74,85.333Z" style="fill:rgb(0,45,115);fill-rule:nonzero;"/>
        </g>
        <g transform="matrix(0.0652619,0,0,0.0656359,456.85,90.6502)">
            <path d="M934.52,96.003L921.48,96.003L921.48,85.333L961.78,85.333L961.78,96.003L948.74,96.003L948.74,140.15L934.52,140.15L934.52,96.003Z" style="fill:rgb(0,45,115);fill-rule:nonzero;"/>
        </g>
        <g transform="matrix(0.0652619,0,0,0.0656359,456.85,90.6502)">
            <path d="M968.59,85.333L994.07,85.333C998.81,85.333 1002.96,86.223 1006.22,88.593C1009.48,90.963 1010.96,94.223 1011.26,98.963C1011.26,106.373 1007.7,111.113 1000.89,112.893L1000.89,113.183C1002.07,113.483 1002.96,113.783 1003.85,114.373C1004.44,114.963 1005.04,115.853 1005.33,117.043C1005.93,117.923 1006.52,119.113 1006.81,120.593C1007.41,121.783 1007.7,123.553 1008.59,125.043L1013.63,140.15L998.81,140.15L995.85,130.372C994.37,125.631 993.19,122.373 991.7,120.593C990.22,119.113 988.44,118.523 985.78,118.523L982.81,118.523L982.81,140.15L968.59,140.15L968.59,85.333ZM982.81,108.153L986.67,108.153C987.56,108.153 988.15,107.853 988.74,107.853L990.52,107.853C992,107.853 993.19,107.553 994.07,107.263C995.26,106.673 996.15,106.073 996.74,105.183C997.63,104.293 997.93,103.113 997.93,101.633C997.93,99.263 996.74,97.483 994.67,96.593C992.3,96.003 989.93,95.703 986.67,95.703L982.81,95.703L982.81,108.153Z" style="fill:rgb(0,45,115);fill-rule:nonzero;"/>
        </g>
        <g transform="matrix(0.0652619,0,0,0.0656359,456.85,90.6503)">
            <rect x="1022.52" y="85.333" width="14.222" height="54.815" style="fill:rgb(0,45,115);"/>
        </g>
        <g transform="matrix(0.0652619,0,0,0.0656359,456.85,90.6502)">
            <path d="M1048.59,85.333L1085.93,85.333L1085.93,95.703L1062.52,95.703L1062.52,106.963L1084.74,106.963L1084.74,117.333L1062.52,117.333L1062.52,129.779L1086.81,129.779L1086.81,140.15L1048.59,140.15L1048.59,85.333Z" style="fill:rgb(0,45,115);fill-rule:nonzero;"/>
        </g>
        <g transform="matrix(0.0652619,0,0,0.0656359,456.85,90.6502)">
            <path d="M1096.89,85.333L1121.78,85.333C1127.11,85.333 1131.26,86.223 1134.52,88.593C1137.78,90.963 1139.56,94.523 1139.56,98.963C1139.26,105.783 1136.3,110.223 1129.78,112.003C1137.19,113.483 1140.74,117.633 1141.04,124.153C1140.74,127.409 1140.15,130.076 1138.96,132.15C1137.78,134.224 1136,136.002 1134.22,136.89C1131.85,138.076 1129.78,138.964 1127.41,139.557C1124.74,139.853 1122.37,140.15 1119.7,140.15L1096.89,140.15L1096.89,85.333ZM1111.11,106.963L1115.26,106.963C1117.93,106.963 1120.3,106.673 1122.37,105.783C1124.15,104.893 1125.33,103.413 1125.33,101.043C1125.33,98.673 1124.44,97.183 1122.37,96.293C1121.48,96.003 1120.3,95.703 1119.41,95.703L1111.11,95.703L1111.11,106.963ZM1111.11,129.779L1115.56,129.779C1117.04,129.779 1118.22,129.483 1119.7,129.483C1120.3,129.187 1120.89,129.187 1121.78,128.89C1122.37,128.89 1122.67,128.594 1123.26,128.594C1124.44,128.002 1125.33,127.409 1125.93,126.52C1126.52,125.927 1126.81,124.743 1126.81,123.263C1126.81,121.783 1126.52,120.593 1125.93,119.703C1125.04,118.813 1124.44,118.223 1123.26,117.633C1122.07,117.333 1120.89,117.043 1119.7,117.043C1118.22,116.743 1117.04,116.743 1115.56,116.743L1111.11,116.743L1111.11,129.779Z" style="fill:rgb(0,45,115);fill-rule:nonzero;"/>
        </g>
        <g transform="matrix(0.0652619,0,0,0.0656359,456.85,90.6311)">
            <path d="M1150.52,126.811C1154.37,129.181 1159.41,130.367 1165.63,130.663C1168,130.663 1170.07,130.367 1171.85,129.478C1173.63,128.885 1174.52,127.404 1174.52,125.334C1174.52,123.844 1174.22,122.664 1173.63,122.074C1173.04,121.184 1171.85,120.294 1170.67,119.994C1169.48,119.404 1168,118.814 1166.52,118.514C1165.04,117.924 1163.56,117.334 1161.78,117.034C1160.3,116.444 1158.52,115.844 1157.04,114.964C1155.56,114.074 1154.07,113.184 1152.89,111.994C1150.22,109.624 1148.74,106.074 1148.74,101.334C1148.74,98.074 1149.33,95.404 1150.81,93.034C1152.3,90.964 1154.07,89.184 1156.44,87.994C1158.81,86.514 1161.48,85.624 1164.15,85.334C1166.81,84.734 1169.48,84.444 1172.44,84.444C1177.78,84.444 1182.52,85.334 1186.37,86.514L1185.48,97.774C1181.63,96.294 1177.48,95.404 1173.04,95.404L1170.07,95.404C1169.19,95.404 1168,95.704 1166.81,95.994C1164.74,96.584 1163.26,98.074 1163.26,100.444C1163.26,101.624 1163.56,102.514 1164.44,103.104C1165.33,103.704 1166.22,104.294 1167.41,104.884C1168.59,105.184 1170.07,105.774 1171.56,106.074C1173.33,106.664 1174.81,107.254 1176.3,107.554C1178.07,108.144 1179.56,108.734 1181.04,109.624C1182.81,110.514 1184,111.404 1185.19,112.584C1186.67,113.774 1187.56,115.254 1188.15,116.734C1189.04,118.514 1189.33,120.584 1189.33,123.254C1189.04,130.07 1186.67,135.107 1181.93,137.478C1177.19,140.144 1171.56,141.33 1165.33,141.33C1160,141.33 1154.37,140.737 1149.04,138.959L1150.52,126.811Z" style="fill:rgb(0,45,115);fill-rule:nonzero;"/>
        </g>
        <g transform="matrix(0.0652619,0,0,0.0656359,456.85,90.6502)">
            <path d="M1193.19,85.333L1208.89,85.333L1221.04,128.298L1221.33,128.298L1233.48,85.333L1248,85.333L1229.93,140.15L1211.85,140.15L1193.19,85.333Z" style="fill:rgb(0,45,115);fill-rule:nonzero;"/>
        </g>
        <g transform="matrix(0.0652619,0,0,0.0656359,456.85,90.6502)">
            <path d="M1255.41,85.333L1292.74,85.333L1292.74,95.703L1269.33,95.703L1269.33,106.963L1291.56,106.963L1291.56,117.333L1269.33,117.333L1269.33,129.779L1293.63,129.779L1293.63,140.15L1255.41,140.15L1255.41,85.333Z" style="fill:rgb(0,45,115);fill-rule:nonzero;"/>
        </g>
        <g transform="matrix(0.0652619,0,0,0.0656359,456.85,90.6502)">
            <path d="M1303.7,85.333L1328.89,85.333C1333.63,85.333 1337.78,86.223 1341.04,88.593C1344.3,90.963 1346.07,94.223 1346.07,98.963C1346.07,106.373 1342.52,111.113 1335.7,112.893L1335.7,113.183C1336.89,113.483 1337.78,113.783 1338.67,114.373C1339.26,114.963 1339.85,115.853 1340.44,117.043C1340.74,117.923 1341.33,119.113 1341.93,120.593C1342.22,121.783 1342.81,123.553 1343.41,125.043L1348.44,140.15L1333.63,140.15L1330.67,130.372C1329.48,125.631 1328,122.373 1326.52,120.593C1325.33,119.113 1323.26,118.523 1320.59,118.523L1317.63,118.523L1317.63,140.15L1303.7,140.15L1303.7,85.333ZM1317.63,108.153L1321.78,108.153C1322.37,108.153 1322.96,107.853 1323.56,107.853L1325.63,107.853C1326.81,107.853 1328,107.553 1329.18,107.263C1330.07,106.673 1330.96,106.073 1331.85,105.183C1332.44,104.293 1332.74,103.113 1332.74,101.633C1332.74,99.263 1331.56,97.483 1329.48,96.593C1327.41,96.003 1324.74,95.703 1321.78,95.703L1317.63,95.703L1317.63,108.153Z" style="fill:rgb(0,45,115);fill-rule:nonzero;"/>
        </g>
        <g transform="matrix(0.0652619,0,0,0.0656359,456.85,90.6502)">
            <path d="M1356.74,85.333L1381.63,85.333C1386.96,85.333 1391.11,86.223 1394.37,88.593C1397.63,90.963 1399.41,94.523 1399.41,98.963C1399.11,105.783 1396.15,110.223 1389.63,112.003C1397.04,113.483 1400.59,117.633 1400.89,124.153C1400.59,127.409 1400,130.076 1398.81,132.15C1397.63,134.224 1396.15,136.002 1393.78,136.89C1391.7,138.076 1389.63,138.964 1387.26,139.557C1384.59,139.853 1382.22,140.15 1379.56,140.15L1356.74,140.15L1356.74,85.333ZM1370.96,106.963L1375.11,106.963C1377.78,106.963 1380.15,106.673 1382.22,105.783C1384,104.893 1385.18,103.413 1385.18,101.043C1385.18,98.673 1384,97.183 1382.22,96.293C1381.33,96.003 1380.15,95.703 1378.96,95.703L1370.96,95.703L1370.96,106.963ZM1370.96,129.779L1375.41,129.779C1376.89,129.779 1378.07,129.483 1379.56,129.483C1380.15,129.187 1380.74,129.187 1381.63,128.89C1382.22,128.89 1382.52,128.594 1383.11,128.594C1384.3,128.002 1385.18,127.409 1385.78,126.52C1386.37,125.927 1386.67,124.743 1386.67,123.263C1386.67,121.783 1386.37,120.593 1385.78,119.703C1384.89,118.813 1384,118.223 1383.11,117.633C1381.93,117.333 1380.74,117.043 1379.56,117.043C1378.07,116.743 1376.89,116.743 1375.41,116.743L1370.96,116.743L1370.96,129.779Z" style="fill:rgb(0,45,115);fill-rule:nonzero;"/>
        </g>
        <g transform="matrix(0.0652619,0,0,0.0656359,456.85,90.6502)">
            <path d="M1425.19,85.333L1442.67,85.333L1463.11,140.15L1447.7,140.15L1443.85,128.594L1423.7,128.594L1419.56,140.15L1405.04,140.15L1425.19,85.333ZM1434.96,96.593L1434.67,96.593L1427.56,117.923L1441.48,117.923L1434.96,96.593Z" style="fill:rgb(0,45,115);fill-rule:nonzero;"/>
        </g>
        <g transform="matrix(0.0652619,0,0,0.0656359,456.85,90.6502)">
            <path d="M1470.81,85.333L1488.89,85.333L1506.96,122.373L1506.67,85.333L1519.7,85.333L1519.7,140.15L1502.22,140.15L1483.56,102.523L1483.26,102.523L1483.85,140.15L1470.81,140.15L1470.81,85.333Z" style="fill:rgb(0,45,115);fill-rule:nonzero;"/>
        </g>
        <g transform="matrix(0.0652619,0,0,0.0656359,456.85,90.6312)">
            <path d="M1531.85,85.623L1551.11,85.623C1560.59,85.333 1568.3,87.103 1573.93,90.963C1579.56,95.103 1582.52,102.213 1582.81,112.583C1582.52,122.963 1579.56,130.069 1573.93,134.217C1568,138.366 1560.59,140.44 1551.11,140.44L1531.85,140.44L1531.85,85.623ZM1546.07,129.477L1551.41,129.477C1562.37,129.477 1568,124.143 1568,112.883C1568,101.923 1562.37,96.293 1551.41,96.293L1546.07,96.293L1546.07,129.477Z" style="fill:rgb(0,45,115);fill-rule:nonzero;"/>
        </g>
    </g>
</svg>
